HIERARCHY
ROOT SimulationBone
{
	OFFSET 0.000000 0.000000 0.000000
	CHANNELS 6 Xposition Yposition Zposition Zrotation Yrotation Xrotation 
	JOINT Hips
	{
		OFFSET 0.000000 0.000000 0.000000
		CHANNELS 6 Xposition Yposition Zposition Zrotation Yrotation Xrotation 
		JOINT LeftUpLeg
		{
			OFFSET 0.103459 1.857839 10.548500
			CHANNELS 3 Zrotation Yrotation Xrotation
			JOINT LeftLeg
			{
				OFFSET 43.500004 -0.000053 -0.000011
				CHANNELS 3 Zrotation Yrotation Xrotation
				JOINT LeftFoot
				{
					OFFSET 42.372192 0.000015 -0.000008
					CHANNELS 3 Zrotation Yrotation Xrotation
					JOINT LeftToe
					{
						OFFSET 17.300007 0.000002 0.000013
						CHANNELS 3 Zrotation Yrotation Xrotation
						End Site
						{
							OFFSET 0.000000 0.000000 0.000000
						}
					}
				}
			}
		}
		JOINT RightUpLeg
		{
			OFFSET 0.103460 1.857826 -10.548500
			CHANNELS 3 Zrotation Yrotation Xrotation
			JOINT RightLeg
			{
				OFFSET 43.500046 -0.000019 0.000011
				CHANNELS 3 Zrotation Yrotation Xrotation
				JOINT RightFoot
				{
					OFFSET 42.372261 0.000004 0.000012
					CHANNELS 3 Zrotation Yrotation Xrotation
					JOINT RightToe
					{
						OFFSET 17.299995 -0.000004 0.000006
						CHANNELS 3 Zrotation Yrotation Xrotation
						End Site
						{
							OFFSET 0.000000 0.000000 0.000000
						}
					}
				}
			}
		}
		JOINT Spine
		{
			OFFSET 6.901963 -2.603745 -0.000005
			CHANNELS 3 Zrotation Yrotation Xrotation
			JOINT Spine1
			{
				OFFSET 12.588102 0.000012 0.000012
				CHANNELS 3 Zrotation Yrotation Xrotation
				JOINT Spine2
				{
					OFFSET 12.343202 0.000010 -0.000009
					CHANNELS 3 Zrotation Yrotation Xrotation
					JOINT Neck
					{
						OFFSET 25.832901 -0.000008 0.000006
						CHANNELS 3 Zrotation Yrotation Xrotation
						JOINT Head
						{
							OFFSET 11.766603 0.000007 -0.000001
							CHANNELS 3 Zrotation Yrotation Xrotation
							End Site
							{
								OFFSET 0.000000 0.000000 0.000000
							}
						}
					}
					JOINT LeftShoulder
					{
						OFFSET 19.745903 -1.480391 6.000108
						CHANNELS 3 Zrotation Yrotation Xrotation
						JOINT LeftArm
						{
							OFFSET 11.284125 -0.000031 -0.000021
							CHANNELS 3 Zrotation Yrotation Xrotation
							JOINT LeftForeArm
							{
								OFFSET 33.000046 0.000024 0.000034
								CHANNELS 3 Zrotation Yrotation Xrotation
								JOINT LeftHand
								{
									OFFSET 25.200014 0.000020 0.000007
									CHANNELS 3 Zrotation Yrotation Xrotation
									End Site
									{
										OFFSET 0.000000 0.000000 0.000000
									}
								}
							}
						}
					}
					JOINT RightShoulder
					{
						OFFSET 19.746098 -1.480371 -6.000075
						CHANNELS 3 Zrotation Yrotation Xrotation
						JOINT RightArm
						{
							OFFSET 11.284128 -0.000021 -0.000009
							CHANNELS 3 Zrotation Yrotation Xrotation
							JOINT RightForeArm
							{
								OFFSET 33.000095 0.000034 0.000006
								CHANNELS 3 Zrotation Yrotation Xrotation
								JOINT RightHand
								{
									OFFSET 25.199781 0.000147 0.000427
									CHANNELS 3 Zrotation Yrotation Xrotation
									End Site
									{
										OFFSET 0.000000 0.000000 0.000000
									}
								}
							}
						}
					}
				}
			}
		}
	}
}
MOTION
Frames: 6
Frame Time: 0.016667
86.319023 0.000000 540.255965 0.000000 266.370345 0.000000 -5.199697 85.511673 -1.952550 82.940360 -4.363507 179.757070 137.543248 3.183811 -179.514802 -45.466553 5.533484 -2.551949 83.733808 -0.175814 -8.790588 21.454562 0.003107 0.000017 159.869429 -0.407196 177.703081 -52.517385 1.115980 1.590867 101.165790 -1.517446 -7.178876 21.454555 -0.003092 0.000000 6.891567 -0.388119 -0.535756 3.773956 -0.758718 -1.083749 3.455884 -0.765400 -1.079138 -17.729561 7.684208 -4.030443 -27.262634 1.634527 -1.862100 131.318019 -76.927159 48.061049 -52.171965 30.725393 -36.559597 -94.049300 -1.385446 2.624913 -4.920044 -9.672178 6.881698 -176.647938 82.958663 4.962037 -20.756280 -48.843174 -0.377445 -89.729915 7.078499 -2.788404 -3.322961 11.976845 -17.654629 
86.309947 0.000000 542.446508 0.000000 265.274297 0.000000 -4.931238 85.741624 -1.907014 83.270155 -4.207379 179.656277 139.169454 2.511568 -179.343550 -37.243031 4.504994 -0.808203 82.654017 -1.790917 -10.227811 21.454558 0.003101 0.000017 163.076044 -0.307156 177.613508 -50.087797 0.842203 1.110115 101.463367 -1.191530 -7.379365 21.454552 -0.003100 -0.000001 6.851619 -0.401713 -0.346255 3.692905 -0.792267 -0.705001 3.374796 -0.796651 -0.700207 -17.510952 6.927029 -3.922422 -26.904526 2.038342 -2.244974 135.772499 -76.712214 43.573466 -49.080109 31.940214 -34.802051 -94.923920 -1.248011 2.652075 -4.986305 -9.444513 6.022587 -175.272807 82.610861 6.349443 -19.212239 -48.766401 -4.858228 -87.295462 8.936241 -2.812156 -2.170609 10.720370 -15.938299 
86.292630 0.000000 544.579892 0.000000 264.142360 0.000000 -4.622872 85.837753 -1.854978 83.550749 -4.027532 179.453686 141.014787 1.853903 -177.680336 -29.085721 3.325754 0.200852 81.325286 -3.075488 -12.346919 21.454557 0.003102 0.000016 166.022146 -0.149398 177.340985 -47.960679 0.755469 0.622179 101.674400 -0.869441 -7.530639 21.454551 -0.003095 0.000000 6.782969 -0.412021 -0.154399 3.554318 -0.819126 -0.321211 3.236187 -0.821190 -0.316266 -16.849821 6.534339 -3.856206 -26.699961 2.329010 -2.503582 138.746984 -76.935963 40.545059 -46.103031 33.626520 -33.060792 -95.333860 -1.186739 2.668591 -4.661832 -9.122341 4.785505 -174.869972 82.751039 6.758076 -18.002510 -49.219548 -9.076861 -84.325788 10.828790 -2.813023 -1.119976 9.722208 -14.454526 
86.265932 0.000000 546.657421 0.000000 262.975947 0.000000 -4.285031 85.819725 -1.805779 83.870364 -3.815568 179.183649 142.910175 1.135516 -175.338383 -21.754403 2.212550 0.563957 79.793614 -4.038865 -14.595002 21.454557 0.003107 0.000016 168.834907 0.090684 176.990126 -46.065752 0.794027 0.103957 101.779039 -0.537220 -7.712406 21.454550 -0.003087 0.000001 6.712575 -0.409578 0.031541 3.412199 -0.819847 0.051170 3.094062 -0.819665 0.056113 -15.784926 6.377804 -3.789799 -26.711532 2.538191 -2.661494 141.618427 -77.366333 37.604985 -43.149698 35.477276 -31.131803 -95.246084 -1.213065 2.669467 -4.155213 -8.793749 3.507590 -175.042281 83.131572 6.587046 -17.052438 -49.918209 -13.162831 -80.850657 12.726114 -2.791910 -0.113456 8.972860 -12.942449 
86.228716 0.000000 548.680401 0.000000 261.776528 0.000000 -3.928755 85.707207 -1.767967 84.317424 -3.566301 178.881449 144.700589 0.341701 -173.130938 -16.064137 1.357241 0.429201 78.083131 -4.659152 -16.419271 21.454558 0.003111 0.000017 171.642340 0.427992 176.667556 -44.331967 0.899099 -0.473476 101.756403 -0.180790 -8.004574 21.454551 -0.003085 0.000002 6.667453 -0.385115 0.203271 3.320795 -0.775762 0.395580 3.002668 -0.773503 0.400252 -14.355468 6.327889 -3.679700 -27.002696 2.698289 -2.741876 145.586067 -77.709352 33.560053 -40.158718 37.167395 -28.850984 -94.627421 -1.338051 2.647505 -3.667054 -8.558998 2.521824 -175.505029 83.501873 6.123021 -16.371110 -50.573506 -17.173910 -76.897725 14.600953 -2.754913 0.897851 8.450886 -11.144988 
86.179842 0.000000 550.650135 0.000000 260.545626 0.000000 -3.572003 85.534542 -1.749721 84.944645 -3.321267 178.602741 146.219774 -0.411412 -171.915449 -12.773427 0.909705 0.069863 76.123755 -4.920502 -17.160412 21.454559 0.003112 0.000019 174.500150 0.914461 176.483545 -42.740047 1.026804 -1.146015 101.559045 0.218637 -8.415449 21.454551 -0.003093 0.000001 6.663056 -0.341668 0.350040 3.311247 -0.692996 0.690316 2.993140 -0.688959 0.694484 -12.609376 6.295132 -3.508752 -27.574060 2.840736 -2.773373 151.147888 -77.753170 27.914938 -37.200948 38.507876 -26.129401 -93.401909 -1.635196 2.604480 -3.330301 -8.492390 2.102788 -175.883200 83.706494 5.743766 -15.994965 -51.034284 -21.055399 -72.497019 16.380588 -2.699989 1.950842 8.070222 -8.979336 
